<?xml version="1.0" ?><svg xmlns="http://www.w3.org/2000/svg" id="flat" viewBox="0 0 512 512"><title/><path d="M232,216H160L46.883,239.766A19.2,19.2,0,0,0,32,258.474V432a35.6,35.6,0,0,0,35.595,35.595H80L328,464V296l-24-64Z" style="fill:#71dfbf"/><polygon points="232 216 232 176 256 168 256 120 272 112 256 80 240 48 160 48 136 96 160 152 160 216 232 216" style="fill:#eae294"/><rect x="80" y="448" width="360" height="32" style="fill:#7349dd"/><path d="M214.943,431.93l-120-16A8,8,0,0,1,88,408V288h16V401L217.057,416.07Z" style="fill:#48af8f"/><path d="M144,32,120,88l24,64h24V112s-24-8-16-24,24,0,24,0V56h72V32Z" style="fill:#5436b2"/><rect x="208" y="88" width="16" height="16" style="fill:#5436b2"/><rect x="376" y="80" width="32" height="104" style="fill:#71dfbf"/><rect x="384" y="184" width="16" height="32" style="fill:#5ebc9f"/><rect x="384" y="48" width="16" height="32" style="fill:#5ebc9f"/><rect x="312" y="104" width="32" height="56" style="fill:#df6d52"/><rect x="320" y="160" width="16" height="32" style="fill:#bf5843"/><rect x="320" y="72" width="16" height="32" style="fill:#bf5843"/><rect x="448" y="48" width="32" height="104" style="fill:#df6d52"/><rect x="456" y="152" width="16" height="32" style="fill:#bf5843"/><rect x="456" y="16" width="16" height="32" style="fill:#bf5843"/><polygon points="208 448 248 296 480 296 440 448 208 448" style="fill:#7349dd"/><polygon points="232 176 192 168 232 200 232 176" style="fill:#191500;opacity:0.2"/><path d="M32,258.474V432a35.6,35.6,0,0,0,24,33.653V256l104-24V216L46.883,239.766A19.2,19.2,0,0,0,32,258.474Z" style="fill:#fcfcfc;opacity:0.3"/><rect x="208" y="448" width="232" height="32" style="fill:#191500;opacity:0.3"/><path d="M453.2,296C425.522,335.461,348.765,435.206,272,448H440l40-152Z" style="fill:#191500;opacity:0.2"/></svg>